<svg xmlns="http://www.w3.org/2000/svg" width="256" height="256"><path fill-opacity=".016" d="M0 128.004v128.004l128.25-.254 128.25-.254.254-127.75L257.008 0H0v128.004m.485.496c0 70.4.119 99.053.265 63.672.146-35.38.146-92.98 0-128C.604 29.153.485 58.1.485 128.5" fill="#FFF" fill-rule="evenodd"/><path fill-opacity=".115" d="M144.5 91.079c-15.674 2.138-34.99 7.877-49 14.559l-6 2.862 31.322.264c17.227.146 45.127.146 62 0l30.678-.264-4.349-4.349C204.4 99.4 195.86 94.988 186.5 92.45c-7.237-1.963-31.782-2.764-42-1.371M8.763 111.565c-1.506.817-2.972 2.487-3.258 3.71-1.294 5.527-4.318 29.048-3.882 30.186C2.758 148.417 7.287 149 29.106 149c12.776 0 21.779.377 21.456.899-.305.495 1.034 2.295 2.976 4L57.07 157h-3.035c-2.477 0-3.038.414-3.049 2.25-.007 1.238-.285 3.262-.616 4.5-.554 2.067-.268 2.25 3.513 2.25 4.199 0 5.962-1.948 1.867-2.063-2.192-.062-2.185-.092.25-1.136l2.5-1.072-2.5-.765c-2.391-.731-2.401-.769-.25-.864 1.289-.057 2.25-.741 2.25-1.6 0-.825.509-1.5 1.13-1.5.748 0 .959 1.522.623 4.5l-.507 4.5h3.741c3.236 0 4.115-.54 6.513-4 3.436-4.959 4.425-5.232 1.599-.443C68.525 165.919 68.524 166 71 166c1.1 0 2-.45 2-1s.675-1 1.5-1 1.5.45 1.5 1 .826 1 1.836 1c1.462 0 1.869-.85 1.999-4.166.227-5.794 1.165-6.197 1.165-.501 0 4.613.038 4.667 3.3 4.667 3.775 0 5.693-1.493 5.715-4.45.009-1.128.477-2.725 1.042-3.55.73-1.069.836-.125.366 3.279l-.659 4.779 10.868-.279 10.868-.279.66-4.5.659-4.5-.167 4.75c-.138 3.928.138 4.75 1.591 4.75.995 0 1.77-.759 1.787-1.75.029-1.667.079-1.667 1.05 0 .561.963 1.897 1.75 2.97 1.75 1.649 0 1.962-.734 2.029-4.75.043-2.613.307-4.185.585-3.494.279.691.952.982 1.495.646.544-.336.396.337-.328 1.497-1.821 2.916-.029 5.512 4.085 5.919 3.828.379 6.084-1.222 6.084-4.318 0-1.24.787-2.873 1.75-3.628 1.59-1.247 1.623-1.21.362.397-1.204 1.534-1.138 2.054.5 3.919 1.705 1.943 1.719 2.089.138 1.513-1.162-.424-1.75-.145-1.75.83 0 .966 1.028 1.469 3 1.469 2.222 0 3-.467 3-1.8 0-.99-.412-2.228-.916-2.75-.56-.58-.361-1.456.512-2.251 1.185-1.079 1.543-.995 2.104.5.372.991 1.379 2.376 2.238 3.078 1.402 1.147 1.39 1.249-.122 1-.927-.152-1.827.173-2 .723-.174.55.924 1.143 2.44 1.317 3.01.346 4.825-2.136 2.941-4.02-1.699-1.699 1.069-3.716 9.6-6.994 4.237-1.628 8.49-3.202 9.453-3.498.963-.296 1.75-.936 1.75-1.422 0-.495 16.06-.883 36.532-.883 29.639 0 37.187-.273 40-1.449 1.907-.797 3.481-1.584 3.496-1.75.016-.166 1.074-7.455 2.351-16.2 2.261-15.473 2.274-15.948.472-17.75-1.781-1.781-6.365-1.849-121.601-1.811-103.968.035-120.111.236-122.487 1.525m3.012 4.685c-1.14.886-2.064 4.851-3.174 13.624-.861 6.806-1.322 12.769-1.024 13.25.297.482 6.958.876 14.801.876 17.126 0 22.989-1.376 27.432-6.437C60.578 125.3 47.658 115 21.507 115c-4.976 0-8.748.484-9.732 1.25m54.725.162c-5.955 2.646-7.684 5.702-8.818 15.584-1.292 11.256-.428 12.557 8.045 12.119 3.274-.169 4.996-3.642 6.214-12.528.596-4.352 1.6-8.534 2.23-9.293.801-.965 2.98-1.293 7.238-1.088l6.091.294v10c0 5.5.364 10.563.809 11.25 1.274 1.968 9.097 1.564 11.028-.57 1.816-2.006 3.663-10.268 3.663-16.382 0-8.872-3.83-10.814-21.218-10.759-7.989.026-13.331.505-15.282 1.373m47.333-.24c-2.017.543-4.313 1.739-5.102 2.658-1.889 2.2-3.948 19.469-2.71 22.726.796 2.092 1.577 2.444 5.431 2.444 5.004 0 6.975-1.885 8.158-7.802l.64-3.198h12.753c9.945 0 13.018-.321 13.961-1.456 2.407-2.901.045-3.544-13.023-3.544-13.834 0-14.472-.271-11.906-5.066.946-1.767 2.223-1.935 14.75-1.949 7.543-.009 14.322-.4 15.063-.87.742-.47 1.186-1.701.988-2.735-.336-1.747-1.596-1.891-17.849-2.038-9.618-.087-19.137.287-21.154.83m48.376-.199c-5.713 1.373-6.782 3.162-8.048 13.462-.636 5.177-.9 10.081-.587 10.897 1.188 3.096 5.69 3.718 24.938 3.441 16.09-.231 18.988-.502 18.988-1.773 0-1.235-2.389-1.588-13.5-2-7.425-.275-14.062-.864-14.75-1.309-.687-.445-1.25-1.894-1.25-3.221v-2.412l13.25-.279c12.882-.271 13.259-.341 13.57-2.529.317-2.235.231-2.25-12.75-2.25-12.972 0-13.07-.017-13.07-2.3 0-4.228 1.594-4.699 15.95-4.715 7.453-.009 14.157-.4 14.898-.87.742-.47 1.186-1.701.988-2.735-.336-1.747-1.597-1.891-17.849-2.039-9.618-.087-18.968.197-20.778.632m46.256-.021c-3.397 1.377-4.553 3.605-5.566 10.73-1.622 11.399-1.485 13.425 1.044 15.473 2.045 1.656 4.327 1.845 22.237 1.845h19.959l-.319-2.25c-.311-2.188-.718-2.264-14.82-2.75l-14.5-.5.177-2.5c.097-1.375.494-5.921.881-10.101.671-7.236.592-7.681-1.649-9.25-2.568-1.799-4.322-1.963-7.444-.697m-185.343 6.401c-.617.744-1.414 4.794-1.769 9L20.707 139h6.178c6.607 0 12.582-1.931 14.731-4.761 3.185-4.195.482-9.743-5.931-12.172-3.954-1.498-11.219-1.333-12.563.286m52.533 6.476c-5.129 5.668 2.926 12.59 8.345 7.171 2.233-2.233 2.501-4.195.965-7.066-1.362-2.545-7.044-2.61-9.31-.105m.971.688c-3.135 3.135-1.362 7.483 3.051 7.483 3.018 0 6.101-4.538 4.653-6.851-1.412-2.256-5.726-2.61-7.704-.632m31.953 26.355c-.383.62-.22 1.128.362 1.128 2.151 0 1.003 3.003-1.191 3.116-1.693.087-1.817.229-.5.573.963.252 1.75.842 1.75 1.311s-.787 1.059-1.75 1.311c-1.364.356-1.271.483.421.573 1.633.087 2.331-.617 2.821-2.846.71-3.235-.719-7.097-1.913-5.166m-88.329 1.79c-1.735.7-1.561 2.325.5 4.679 1.667 1.903 1.667 1.968 0 1.36-1.162-.424-1.75-.145-1.75.83 0 1.972 4.884 1.934 5.643-.044.32-.832.025-2.182-.654-3-.857-1.033-.891-1.487-.111-1.487.617 0 1.122-.675 1.122-1.5 0-1.461-2.23-1.855-4.75-.838M27 161.5c0 4.476.019 4.5 3.5 4.5 3.887 0 4.768-1.617 1.25-2.294l-2.25-.434 2.25-.136c2.633-.159 3.076-2.106.5-2.199-1.308-.048-1.166-.298.564-.992 3.166-1.27 1.816-2.945-2.373-2.945-3.412 0-3.441.039-3.441 4.5m9.667-3.833c-.367.366-.667 2.391-.667 4.5 0 4.024 2.408 5.539 3.311 2.083.435-1.667.463-1.667.573 0 .064.963.904 1.748 1.866 1.746 1.317-.004 1.798-.925 1.945-3.726.107-2.046-.343-4.062-1-4.48-1.484-.943-5.134-1.018-6.028-.123m8.958 2.458C44.64 165.051 44.862 166 47 166c1.704 0 2-.667 2-4.5 0-5.336-2.388-6.309-3.375-1.375M99 158.333c0 1.028-.863 1.711-2.25 1.783-1.693.087-1.817.229-.5.573.963.252 1.75.842 1.75 1.311s-.787 1.059-1.75 1.311c-1.364.356-1.271.483.421.573 1.649.088 2.332-.621 2.845-2.956.371-1.689.406-3.339.079-3.666-.327-.328-.595.155-.595 1.071m3.252 2.167c.011 2.2.216 2.982.455 1.738.239-1.244.23-3.044-.02-4s-.446.062-.435 2.262m16.373-2.702c-.271.439-.08 1.451.426 2.25.717 1.134.922.959.934-.798.015-2.313-.493-2.856-1.36-1.452m34.358 3.236c-2.469 4.838-2.026 5.86 1.682 3.884 2.079-1.107 2.754-1.144 3.082-.168.231.688 1.264 1.25 2.295 1.25 1.823 0 1.825-.119.072-4.25-2.42-5.702-4.482-5.909-7.131-.716m12.003-1.784c-.007 1.238-.285 3.262-.616 4.5-.444 1.654-.175 2.25 1.013 2.25.89 0 1.624-.562 1.632-1.25.011-.869.24-.913.75-.145.404.607 2.198 1.139 3.985 1.183 3.19.077 3.25-.004 3.25-4.355 0-4.734-1.968-6.094-3.883-2.683-.936 1.667-1.015 1.667-1.657 0-1.014-2.633-4.457-2.248-4.474.5m13.097 1.816c-2.625 4.671-2.174 5.856 1.484 3.898 2.095-1.121 2.71-1.134 3.368-.069.442.716 1.521 1.145 2.396.953 1.419-.31 1.384-.808-.321-4.598-1.052-2.338-2.526-4.25-3.277-4.25-.751 0-2.393 1.83-3.65 4.066m9.917.434c0 3.231.402 4.5 1.427 4.5.784 0 1.632-.787 1.884-1.75.435-1.667.463-1.667.573 0 .064.963.903 1.748 1.866 1.746 1.317-.004 1.798-.925 1.945-3.726.215-4.112-.839-5.232-4.945-5.255-2.595-.014-2.75.239-2.75 4.485m11.25-2.966c-2.47 1.734-2.917 4.399-1.05 6.266 1.495 1.495 10.018 1.582 11.482.118.776-.776 1.668-.716 3.155.212 2.961 1.849 3.671.493 2.018-3.851-1.988-5.225-4.069-5.247-7.186-.077-1.425 2.364-2.609 3.778-2.63 3.142-.022-.659-.9-.932-2.039-.634-1.535.402-2 .031-2-1.593 0-1.479.628-2.117 2.083-2.117 1.222 0 1.912-.517 1.667-1.25-.628-1.889-2.985-1.982-5.5-.216M63 162.059c0 1.132.45 1.781 1 1.441.55-.34 1-1.266 1-2.059 0-.793-.45-1.441-1-1.441s-1 .927-1 2.059M84 162c0 1.289.506 1.998 1.25 1.75.688-.229 1.25-1.017 1.25-1.75 0-.733-.562-1.521-1.25-1.75-.744-.248-1.25.461-1.25 1.75m44.177-.447c.452 2.172 2.227 2.305 2.633.197.21-1.095-.28-1.75-1.31-1.75-.961 0-1.512.647-1.323 1.553" fill="#FFF" fill-rule="evenodd"/><path fill-opacity=".392" d="M149.5 91.035c-17.756 1.995-40.774 8.455-53.443 14.999l-5.557 2.87 60.75.048c34.536.027 60.75-.333 60.75-.836 0-1.849-8.506-8.456-14.377-11.168-11.395-5.262-31.701-7.758-48.123-5.913M7.258 113.399c-2.433 3.093-6.215 29.861-4.584 32.446.961 1.523 10.743 1.675 122.526 1.909 114.724.24 121.57.156 123.053-1.5 1.765-1.972 6.443-30.999 5.423-33.655-.557-1.453-11.728-1.599-122.572-1.599H9.145l-1.887 2.399m3.829 2.996c-.637.767-1.884 6.828-2.771 13.468-2.177 16.291-2.983 15.526 15.723 14.926 12.953-.416 15.205-.754 20.186-3.034 6.248-2.861 8.711-5.845 9.46-11.467.88-6.598-5.123-11.757-16.484-14.165-7.804-1.654-24.661-1.478-26.114.272m53.913.426c-5.511 3-7.174 6.819-7.349 16.882-.145 8.346-.052 8.736 2.418 10.142 3.278 1.866 7.405.888 9.455-2.241.852-1.3 2.137-6.061 2.856-10.578.746-4.691 1.91-8.607 2.714-9.13.773-.503 3.881-.798 6.906-.655l5.5.259v10.446c0 10.172.067 10.483 2.569 11.903 2.879 1.634 6.908 1.032 9.335-1.396 2.094-2.094 3.726-8.57 3.929-15.589.147-5.127-.158-6.134-2.603-8.586-2.746-2.754-2.896-2.78-17.5-3.07-12.94-.257-15.155-.061-18.23 1.613m46.828-.205c-4.397 1.839-4.478 2.023-5.946 13.466-1.319 10.286-.529 13.467 3.603 14.504 5.302 1.33 9.649-2.354 10.721-9.086.298-1.867 1.202-2.019 13.599-2.279 10.634-.224 13.394-.575 13.85-1.763 1.333-3.475-1.451-4.391-14.222-4.679l-12.37-.279 1.246-2.5c1.223-2.456 1.5-2.509 15.718-3l14.473-.5v-5l-18.5-.21c-14.735-.167-19.247.103-22.172 1.326m47.505.309c-4.015 1.833-4.196 2.117-4.942 7.739-.426 3.21-.801 8.311-.833 11.336-.056 5.306.066 5.562 3.442 7.26 3.029 1.523 5.992 1.725 22 1.5l18.5-.26v-5l-12.5-.245c-15.718-.308-17-.592-17-3.774V133h13.393c11.446 0 13.484-.236 14.017-1.627 1.378-3.591-1.13-4.373-14.032-4.373-6.808 0-12.378-.4-12.378-.889s.787-1.836 1.75-2.993c1.605-1.929 2.912-2.125 15.75-2.361l14-.257v-5l-18.5-.24c-16.381-.212-18.977-.021-22.667 1.665m47.58-.643c-2.638 2.026-3.614 4.813-4.898 13.988-1.383 9.88-.987 11.007 4.703 13.385 4.87 2.036 37.571 1.907 39.282-.155.982-1.183.987-1.811.023-2.972-.944-1.138-4.327-1.536-14.873-1.75l-13.65-.278.03-4c.016-2.2.383-6.559.814-9.686.692-5.018.541-5.929-1.28-7.75-2.313-2.313-7.624-2.722-10.151-.782m-183.798 6.504c-.526.982-1.104 4.919-1.286 8.75L21.5 138.5l5 .289c9.986.578 17.951-4.687 15.943-10.537-1.946-5.666-16.95-9.91-19.328-5.466m53.52 5.287c-2.835 2.229-3.555 6.607-1.435 8.727.66.66 2.659 1.2 4.443 1.2 5.727 0 8.618-7.303 4.134-10.443-2.917-2.044-3.986-1.967-7.142.516m1.115 1.007c-2.302 1.341-2.243 5.586.095 6.837 2.494 1.335 6.155-1.263 6.155-4.367 0-3.219-2.957-4.388-6.25-2.47M51 150.556c0 .306 1.45 1.881 3.223 3.5 2.494 2.279 4.171 2.944 7.418 2.944 5.153 0 7.359.782 7.359 2.607 0 2.102 1.777 1.67 2.5-.607 1.014-3.193 5.841-2.691 7.201.75l1.086 2.75.107-2.701.106-2.7 9.991-.012 9.992-.012-.156 3.965c-.085 2.181.144 4.264.509 4.629.365.366.668-1.323.672-3.752.007-3.815.374-4.587 2.699-5.667 1.481-.687 3.663-1.25 4.85-1.25 1.892 0 2.157.556 2.157 4.524 0 5.868.845 6.635 1.665 1.51l.645-4.034h5.488c3.602 0 5.488.412 5.488 1.2 0 .933.267.933 1.2 0 1.478-1.478 7.443-1.586 8.33-.151.423.685 1.054.711 1.82.076.644-.535 4.627-.991 8.85-1.013 6.131-.032 9.302-.666 15.739-3.149 4.434-1.709 8.061-3.301 8.061-3.536 0-.235-26.325-.427-58.5-.427s-58.5.25-58.5.556M106 157c0 .55-.675 1-1.5 1-1.083 0-1.5 1.111-1.5 4 0 3.905.083 4 3.5 4 3.799 0 4.936-1.926 1.25-2.116-1.693-.087-1.817-.229-.5-.573.963-.252 1.75-.842 1.75-1.311s-.787-1.059-1.75-1.311c-1.317-.344-1.193-.486.5-.573 2.505-.129 3.154-2.116.691-2.116-.857 0-1.281-.45-.941-1 .34-.55.141-1-.441-1s-1.059.45-1.059 1m-86.539 2.063c-.361.585.132 1.935 1.096 3 1.595 1.763 1.604 1.937.098 1.937-.91 0-1.655.45-1.655 1s1.139 1 2.531 1c3.252 0 4.431-2.823 1.94-4.645-1.653-1.208-1.67-1.355-.162-1.355.93 0 1.691-.45 1.691-1 0-1.338-4.706-1.285-5.539.063M27 162c0 3.905.083 4 3.5 4 3.782 0 4.968-1.959 1.25-2.063-2.192-.062-2.185-.092.25-1.136l2.5-1.072-2.5-.765c-2.391-.731-2.401-.769-.25-.864 3.696-.164 2.544-2.1-1.25-2.1-3.417 0-3.5.095-3.5 4m9 0c0 4.169 2.385 5.79 3.311 2.25.435-1.667.463-1.667.573 0 .064.963.819 1.75 1.679 1.75.931 0 1.446-.707 1.275-1.75-.159-.963.065-2.312.496-3 1.267-2.02-.206-3.25-3.893-3.25-3.348 0-3.441.108-3.441 4m9.829 0c-.316 3.309-.075 4 1.395 4 1.405 0 1.776-.834 1.776-4 0-2.755-.434-4-1.395-4-.897 0-1.531 1.427-1.776 4M51 162c0 3.905.083 4 3.5 4 3.799 0 4.936-1.926 1.25-2.116-1.693-.087-1.817-.229-.5-.573.962-.252 1.75-.842 1.75-1.311s-.788-1.059-1.75-1.311c-1.317-.344-1.193-.486.5-.573 3.686-.19 2.549-2.116-1.25-2.116-3.417 0-3.5.095-3.5 4m9-.06c0 3.766.199 4.059 2.75 4.045 4.028-.023 5.455-1.312 5.08-4.594-.291-2.548-.775-2.928-4.08-3.201l-3.75-.311v4.061m11.12.06c-1.656 2.946-1.889 4-.884 4 .75 0 1.915-.551 2.589-1.225.967-.967 1.639-.967 3.186 0 3.328 2.078 3.891 1.385 2.257-2.775-.957-2.435-2.223-4-3.236-4-.915 0-2.675 1.8-3.912 4m9.88 0c0 3.909.08 4 3.521 4 2.775 0 3.761-.524 4.647-2.47 1.525-3.347-.366-5.53-4.79-5.53-3.274 0-3.378.123-3.378 4m11 0c0 3.778.167 4 3 4 3.247 0 4.095-1.567 1.25-2.311-1.667-.435-1.667-.463 0-.573.963-.064 1.75-.533 1.75-1.043 0-.509-.787-1.132-1.75-1.384-1.317-.344-1.193-.486.5-.573 3.686-.19 2.549-2.116-1.25-2.116-3.417 0-3.5.095-3.5 4m22 0c0 2.2.45 4 1 4s1.01-1.012 1.022-2.25l.022-2.25 1.85 2.406c2.588 3.366 5.106 2.195 5.106-2.375 0-2.472-.45-3.531-1.5-3.531-.825 0-1.514.787-1.532 1.75-.03 1.667-.095 1.667-1.36 0-2.452-3.23-4.608-2.177-4.608 2.25m11.667-3.333c-.367.366-.667 1.933-.667 3.481 0 2.145.577 2.959 2.428 3.423 5.07 1.273 8.602-1.778 6.533-5.643-1.018-1.904-6.777-2.779-8.294-1.261m10.794.396c-.361.585.132 1.935 1.096 3 1.595 1.763 1.604 1.937.098 1.937-.91 0-1.655.45-1.655 1 0 1.605 5.005 1.15 5.643-.513.32-.832.025-2.182-.654-3-.857-1.033-.891-1.487-.111-1.487.617 0 1.122-.45 1.122-1 0-1.338-4.706-1.285-5.539.063m8 0c-.361.585.132 1.935 1.096 3 1.595 1.763 1.604 1.937.098 1.937-.91 0-1.655.48-1.655 1.066 0 1.406 5.237.764 5.718-.7.204-.624-.356-1.861-1.245-2.75-1.45-1.45-1.455-1.616-.044-1.616.864 0 1.571-.45 1.571-1 0-1.338-4.706-1.285-5.539.063m8.621 2.305c-2.48 4.012-2.558 4.632-.582 4.632.825 0 1.5-.45 1.5-1s.9-1 2-1 2 .45 2 1 .723 1 1.607 1c1.059 0 1.399-.543.996-1.593-.336-.876-.883-2.676-1.216-4-.869-3.462-3.853-3.008-6.305.961M165 162c0 4.044 1.468 5.474 2.311 2.25.435-1.667.463-1.667.573 0 .133 2.004 2.697 2.375 3.454.5.403-1 .52-1 .583 0 .043.688.754 1.25 1.579 1.25 1.083 0 1.5-1.111 1.5-4 0-4.427-2.156-5.48-4.608-2.25-1.265 1.667-1.33 1.667-1.36 0-.02-1.073-.806-1.75-2.032-1.75-1.667 0-2 .667-2 4m13 0c-2.11 4.135-1.508 4.906 2.144 2.75 1.694-1 2.208-1 2.57 0 .505 1.395 3.286 1.732 3.286.399 0-.468-.494-2.268-1.098-4-1.56-4.475-4.361-4.13-6.902.851m10 0c0 4.169 2.385 5.79 3.311 2.25.435-1.667.463-1.667.573 0 .064.963.839 1.75 1.723 1.75 1.073 0 1.4-.54.983-1.627-.344-.894-.128-2.225.479-2.956 1.678-2.022.197-3.417-3.628-3.417-3.348 0-3.441.108-3.441 4m10.2-2.8c-2.682 2.682-.598 6.8 3.441 6.8 3.038 0 3.954-1.777 1.124-2.179-2.933-.416-2.944-3.225-.015-3.641 1.238-.175 2.25-.738 2.25-1.25 0-1.354-5.39-1.14-6.8.27m9.485 2.334c-2.055 4.31-2.062 4.466-.185 4.466.825 0 1.5-.45 1.5-1s.9-1 2-1 2 .45 2 1 .675 1 1.5 1c1.849 0 1.851-.224.051-4.532-1.921-4.597-4.655-4.57-6.866.066M63 162c0 1.1.402 2 .893 2 1.124 0 2.173-2.601 1.371-3.402C64.061 159.394 63 160.051 63 162m21 .083c0 2.437 2.337 2.093 2.823-.416.192-.987-.318-1.667-1.25-1.667-.927 0-1.573.855-1.573 2.083m43.659-1.341c-.29.47-.152 1.46.306 2.201 1.014 1.641 4.376.581 3.785-1.194-.5-1.502-3.351-2.204-4.091-1.007" fill="#FFF" fill-rule="evenodd"/><path fill-opacity=".622" d="M8.78 112.064c-2.153 1.254-3.159 5.196-5.323 20.855-1.652 11.951-1.648 12.468.104 13.75 2.695 1.97 241.176 1.975 243.87.005 2.415-1.766 7.249-32.149 5.458-34.307-.948-1.142-20.953-1.362-121.761-1.337-78.769.02-121.225.379-122.348 1.034m4.72 2.589c-1.1.297-2.432.952-2.96 1.454-1.427 1.357-4.349 25.483-3.312 27.337 1.264 2.258 26.165 2.222 33.813-.049 8.616-2.559 13.752-8.623 13.038-15.395-.524-4.963-6.4-9.75-14.579-11.877-4.68-1.217-23.091-2.258-26-1.47m54.5.528c-7.352 2.051-10.13 6.753-11.509 19.481-.588 5.43-.419 6.41 1.421 8.25 2.05 2.05 6.315 2.706 9.543 1.467 2.233-.857 4.529-5.614 4.624-9.579.043-1.815.326-2.625.627-1.8.982 2.685 4.598 6 6.545 6 1.047 0 3.163-1.261 4.704-2.801l2.801-2.802-.494 3.686c-1.22 9.099 11.616 11.241 15.25 2.544 2.067-4.948 2.937-15.13 1.573-18.422-2.191-5.29-6.186-6.688-19.585-6.853-6.6-.081-13.575.292-15.5.829m48.5-.27c-8.898 1.554-10.137 3.493-11.114 17.399-.745 10.597.238 12.69 5.963 12.69 4.47 0 7.409-2.388 8.661-7.037l1.067-3.963h11.77c12.536 0 15.691-.96 14.999-4.566-.34-1.773-1.429-1.957-13.108-2.214-11.832-.26-12.738-.417-12.738-2.215 0-3.244 3.3-4.005 17.367-4.005 12.98 0 13.525-.084 14.188-2.174 1.255-3.954-1.412-4.645-17.871-4.629-8.351.008-16.984.33-19.184.714m48 0c-4.859.849-8.145 2.553-9.373 4.862-.95 1.787-2.694 16.579-2.267 19.227.134.825 1.37 2.512 2.747 3.75 2.415 2.169 3.198 2.25 21.826 2.25 15.955 0 19.539-.261 20.567-1.5.993-1.197.993-1.803 0-3-.992-1.195-3.938-1.5-14.5-1.5-10.427 0-13.515-.313-14.472-1.466-2.405-2.898-.495-3.519 12.444-4.048 7.135-.292 13.365-.923 13.844-1.402.479-.479.711-1.707.516-2.728-.322-1.674-1.604-1.883-13.094-2.136-11.832-.26-12.738-.417-12.738-2.215 0-3.244 3.3-4.005 17.367-4.005 12.98 0 13.525-.084 14.188-2.174 1.255-3.954-1.412-4.645-17.871-4.629-8.351.008-16.984.33-19.184.714m45.106.039c-4.359.828-6.457 4.535-7.742 13.679-2.2 15.667-1.145 16.377 24.336 16.356 10.065-.009 18.907-.4 19.648-.87.742-.47 1.187-1.701.989-2.735-.326-1.706-1.672-1.926-14.519-2.38-7.787-.275-14.436-.779-14.774-1.119-.339-.34-.07-4.717.597-9.726 1.103-8.285 1.056-9.28-.529-11.031-2.114-2.336-4.187-2.899-8.006-2.174m-185.27 6.821c-1.284.817-3.565 15.049-2.65 16.53.665 1.076 10.833.111 15.325-1.455 5.083-1.772 6.753-7.94 3.055-11.286-3.74-3.385-12.898-5.591-15.73-3.789m50.738.64c-.644.776-1.44 3.072-1.77 5.102l-.599 3.691 2.602-2.602c1.431-1.431 3.552-2.602 4.713-2.602 3.061 0 5.964 1.806 6.083 3.785.057.943.554.018 1.105-2.057.736-2.774.677-4.162-.226-5.25-1.613-1.944-10.31-1.993-11.908-.067M20 159.8c0 .99.54 2.34 1.2 3 .933.933.822 1.2-.5 1.2-.935 0-1.7.45-1.7 1 0 1.338 4.706 1.285 5.539-.063.361-.585-.062-1.858-.941-2.829-2.037-2.25-2.01-2.854.152-3.419 1.077-.281.692-.502-1-.573-2.024-.085-2.75.359-2.75 1.684m7.63.45c-1.29 4.814-.823 5.75 2.87 5.75 1.925 0 3.5-.45 3.5-1s-.927-1-2.059-1c-1.14 0-1.779-.454-1.431-1.016.346-.559 1.047-.758 1.559-.441.512.316.931.098.931-.484S32.325 161 31.5 161c-2.348 0-1.756-1.812.75-2.294 1.691-.326 1.471-.467-.883-.57-2.465-.107-3.262.344-3.737 2.114m8.995.875c-.891 4.454-.81 4.875.938 4.875.889 0 1.486-.754 1.385-1.75-.327-3.209.043-5.25.949-5.25.494 0 .832 1.415.75 3.143-.089 1.912.405 3.337 1.262 3.637 1.005.351 1.215-.014.733-1.27-.372-.97-.18-2.362.427-3.093 1.585-1.909.26-3.417-3.003-3.417-2.354 0-2.919.513-3.441 3.125M46 162c0 2.2.403 4 .895 4s1.067-1.8 1.276-4c.265-2.777-.009-4-.895-4-.822 0-1.276 1.423-1.276 4m5 0c0 3.778.167 4 3 4 1.65 0 3-.45 3-1s-.927-1-2.059-1c-1.14 0-1.779-.454-1.431-1.016.346-.559 1.016-.777 1.49-.484.474.293 1.144.075 1.49-.484.345-.559-.074-1.016-.931-1.016-2.393 0-1.849-1.805.691-2.294 1.393-.269.821-.486-1.5-.57-3.731-.135-3.75-.116-3.75 3.864m9-.06c0 3.806.18 4.06 2.878 4.06 3.448 0 5.395-2.044 4.949-5.195-.265-1.87-1.035-2.364-4.077-2.615l-3.75-.311v4.061m11.642-.316c-1.853 3.887-1.31 6.01.8 3.124 1.625-2.222 3.192-2.224 4.433-.006 1.645 2.938 2.387.624 1.016-3.167-1.666-4.606-4.038-4.588-6.249.049M82 160.418c0 1.33-.273 3.13-.607 4-.467 1.217.053 1.578 2.25 1.567 3.282-.018 4.84-.853 5.572-2.985.905-2.638-1.103-5-4.25-5-2.469 0-2.965.404-2.965 2.418M92 162c0 3.778.167 4 3 4 1.65 0 3-.45 3-1s-.927-1-2.059-1c-1.14 0-1.779-.454-1.431-1.016.346-.559 1.016-.777 1.49-.484.474.293 1.144.075 1.49-.484.355-.574-.355-1.016-1.631-1.016-2.584 0-1.482-1.536 1.641-2.287 1.13-.272.368-.531-1.75-.597-3.728-.115-3.75-.092-3.75 3.884m11 0c0 3.778.167 4 3 4 1.65 0 3-.45 3-1s-.927-1-2.059-1c-1.14 0-1.779-.454-1.431-1.016.346-.559 1.016-.777 1.49-.484.474.293 1.144.075 1.49-.484.345-.559-.074-1.016-.931-1.016-2.393 0-1.849-1.805.691-2.294 1.393-.269.821-.486-1.5-.57-3.731-.135-3.75-.116-3.75 3.864m11 0c0 4.518 1.676 5.459 2.227 1.25l.361-2.75 1.366 2.75c2.063 4.151 4.046 3.509 4.046-1.309 0-2.624-.378-3.826-1.068-3.399-.588.363-.827 1.29-.532 2.059.81 2.109-.744 1.678-2.168-.601-2.163-3.463-4.232-2.485-4.232 2m12.2-2.8c-2.633 2.633-.61 6.8 3.3 6.8 2.71 0 4.5-1.827 4.5-4.593 0-3.234-5.279-4.728-7.8-2.207m10.8.8c0 1.1.45 2 1 2s1 .45 1 1-.675 1-1.5 1-1.5.45-1.5 1c0 1.338 4.706 1.285 5.539-.063.361-.585-.062-1.858-.941-2.829-2.037-2.25-2.01-2.854.152-3.419 1.077-.281.692-.502-1-.573-2.122-.09-2.75.341-2.75 1.884m7.461-.937c-.361.585.132 1.935 1.096 3 1.595 1.763 1.604 1.937.098 1.937-.91 0-1.655.45-1.655 1 0 1.386 3.344 1.256 4.786-.186.915-.915.799-1.615-.51-3.061-1.465-1.619-1.497-2.001-.236-2.799 1.152-.729.998-.927-.731-.939-1.205-.008-2.487.463-2.848 1.048M153 162c-2.101 4.119-.994 5.638 1.64 2.25 1.295-1.667 1.425-1.667 2.72 0 .748.963 1.873 1.75 2.5 1.75 1.443 0 1.44-.038-.373-4.378-1.964-4.7-3.956-4.584-6.487.378m12.667-3.333c-1.059 1.058-.773 7.333.333 7.333.55 0 1.029-1.012 1.063-2.25l.064-2.25.904 2.25c1.204 2.994 2.351 2.838 3.67-.5l1.086-2.75.107 2.75c.168 4.348 2.106 3.198 2.106-1.25 0-3.251-.353-4-1.883-4-1.067 0-2.206.976-2.627 2.25l-.744 2.25-.443-2.25c-.426-2.169-2.255-2.965-3.636-1.583m12.553 3.341c-1.742 3.051-1.944 3.992-.857 3.992.783 0 1.682-.675 1.999-1.5.77-2.007 2.628-1.897 4.196.248 1.916 2.62 2.523 1.127 1.242-3.049-1.485-4.838-3.7-4.734-6.58.309m10.41-1.758c-.874 3.264-.763 5.75.259 5.75.488 0 1.184-1.575 1.545-3.5.817-4.353 2.413-4.61 2.213-.357-.089 1.912.405 3.337 1.262 3.637 1.005.351 1.215-.014.733-1.27-.372-.97-.18-2.362.427-3.093 1.586-1.911.259-3.417-3.011-3.417-2.084 0-2.983.59-3.428 2.25m10.62-1.588c-1.819.734-1.559 6.005.332 6.731 2.378.913 4.418.731 4.418-.393 0-.55-.9-1-2-1-3.108 0-2.544-3.634.75-4.838l2.75-1.004H203c-1.375 0-3.062.227-3.75.504m8.782 3.275c-2.125 4.166-1.043 5.724 1.608 2.313 1.295-1.667 1.425-1.667 2.72 0 2.449 3.151 3.649 2.079 2.238-2-1.794-5.188-4.025-5.294-6.566-.313m-145.434-2.201c-.329.328-.598 1.455-.598 2.504 0 2.35 3.326 2.02 3.788-.376.314-1.63-2.087-3.232-3.19-2.128M84 161.5c0 1.689.458 2.514 1.25 2.25.688-.229 1.25-1.242 1.25-2.25s-.562-2.021-1.25-2.25c-.792-.264-1.25.561-1.25 2.25m43.915-.898c-.888 1.07-.927 1.786-.14 2.573 1.381 1.381 4.225.347 4.225-1.537 0-2.083-2.656-2.757-4.085-1.036M74 161c0 .55.477 1 1.059 1s.781-.45.441-1-.816-1-1.059-1-.441.45-.441 1m136.5 0c-.34.55-.141 1 .441 1s1.059-.45 1.059-1-.198-1-.441-1-.719.45-1.059 1" fill="#FFF" fill-rule="evenodd"/></svg>